<svg width="28" height="28" viewBox="0 0 28 28" fill="none" xmlns="http://www.w3.org/2000/svg">
<path d="M0 14C0 6.26801 6.26801 0 14 0C21.732 0 28 6.26801 28 14C28 21.732 21.732 28 14 28C6.26801 28 0 21.732 0 14Z" fill="#D3D4F8"/>
<path fill-rule="evenodd" clip-rule="evenodd" d="M19.9476 8.62169L11.5943 16.6834L9.37763 14.315C8.9693 13.93 8.32763 13.9067 7.86096 14.2334C7.40596 14.5717 7.27763 15.1667 7.55763 15.645L10.1826 19.915C10.4393 20.3117 10.8826 20.5567 11.3843 20.5567C11.8626 20.5567 12.3176 20.3117 12.5743 19.915C12.9943 19.3667 21.0093 9.81169 21.0093 9.81169C22.0593 8.73836 20.7876 7.79336 19.9476 8.61002V8.62169Z" fill="#4F55E3"/>
</svg>
