<svg width="333" height="100" viewBox="0 0 333 100" fill="none" xmlns="http://www.w3.org/2000/svg">
<path d="M332.731 2.61411C332.729 2.66311 332.726 2.71209 332.72 2.76285C332.639 3.55045 332.106 4.20332 331.593 4.8054C318.783 19.9082 303.387 37.1654 288.241 49.9001C242.421 88.4298 178.465 106.282 119.339 97.4417C98.6959 94.3543 78.5263 87.7227 60.1491 77.7656C51.2131 72.9244 42.4025 66.6166 34.4332 59.9027C26.6469 53.3411 18.371 45.1045 10.4645 37.9338C10.2764 37.764 9.96454 37.9303 9.9297 38.1823C9.52906 41.1262 5.68817 53.9799 5.30321 54.9216C3.57523 59.1536 -0.267451 58.6408 0.45196 53.6317C1.29853 47.7386 2.55796 42.978 3.96194 37.274C4.43226 35.3592 5.0123 31.2007 6.46854 29.8775C8.19303 28.311 10.7223 28.6943 13.0478 28.619C18.2857 28.4458 24.2187 27.9382 29.474 28.4615C34.3183 28.9446 38.9465 33.6212 30.9808 33.812C25.7689 33.9363 19.9457 34.0605 14.6921 33.8908C14.5005 33.8838 14.4047 34.1166 14.5475 34.2443C17.7126 37.0762 23.001 42.4704 25.539 45.2218C65.5438 88.5978 139.004 102.222 196.058 89.0756C207.228 86.5028 218.203 83.0758 228.852 78.8227C267.688 63.3104 302.279 31.5699 325.239 3.9775C326.361 2.62982 327.317 0.975884 328.975 0.422811C330.587 -0.114511 332.773 0.951384 332.731 2.61411Z" fill="#4F55E3"/>
</svg>
